<svg width="25" height="26" viewBox="0 0 25 26" fill="none" xmlns="http://www.w3.org/2000/svg">
<path d="M16.1458 8.31258C16.1458 8.79136 16.0515 9.26545 15.8683 9.70778C15.6851 10.1501 15.4165 10.552 15.078 10.8906C14.7394 11.2291 14.3375 11.4977 13.8952 11.6809C13.4529 11.8641 12.9788 11.9584 12.5 11.9584C12.0212 11.9584 11.5471 11.8641 11.1048 11.6809C10.6625 11.4977 10.2605 11.2291 9.922 10.8906C9.58345 10.552 9.3149 10.1501 9.13168 9.70778C8.94846 9.26545 8.85416 8.79136 8.85416 8.31258C8.85416 7.34565 9.23827 6.41831 9.922 5.73459C10.6057 5.05086 11.5331 4.66675 12.5 4.66675C13.4669 4.66675 14.3943 5.05086 15.078 5.73459C15.7617 6.41831 16.1458 7.34565 16.1458 8.31258Z" fill="black"/>
<path opacity="0.4" d="M20.3125 8.31242C20.3125 9.00309 20.0381 9.66547 19.5498 10.1538C19.0614 10.6422 18.399 10.9166 17.7083 10.9166C17.0177 10.9166 16.3553 10.6422 15.8669 10.1538C15.3785 9.66547 15.1042 9.00309 15.1042 8.31242C15.1042 7.62175 15.3785 6.95937 15.8669 6.47099C16.3553 5.98262 17.0177 5.70825 17.7083 5.70825C18.399 5.70825 19.0614 5.98262 19.5498 6.47099C20.0381 6.95937 20.3125 7.62175 20.3125 8.31242ZM4.6875 8.31242C4.6875 9.00309 4.96187 9.66547 5.45024 10.1538C5.93862 10.6422 6.601 10.9166 7.29167 10.9166C7.98233 10.9166 8.64471 10.6422 9.13309 10.1538C9.62147 9.66547 9.89583 9.00309 9.89583 8.31242C9.89583 7.62175 9.62147 6.95937 9.13309 6.47099C8.64471 5.98262 7.98233 5.70825 7.29167 5.70825C6.601 5.70825 5.93862 5.98262 5.45024 6.47099C4.96187 6.95937 4.6875 7.62175 4.6875 8.31242Z" fill="black"/>
<path d="M18.75 17.6876C18.75 19.7011 15.9521 21.3334 12.5 21.3334C9.04792 21.3334 6.25 19.7011 6.25 17.6876C6.25 15.674 9.04792 14.0417 12.5 14.0417C15.9521 14.0417 18.75 15.674 18.75 17.6876Z" fill="black"/>
<path opacity="0.4" d="M22.9167 17.6874C22.9167 19.1249 21.0521 20.2916 18.75 20.2916C16.4479 20.2916 14.5833 19.1249 14.5833 17.6874C14.5833 16.2499 16.4479 15.0833 18.75 15.0833C21.0521 15.0833 22.9167 16.2499 22.9167 17.6874ZM2.08334 17.6874C2.08334 19.1249 3.94793 20.2916 6.25001 20.2916C8.55209 20.2916 10.4167 19.1249 10.4167 17.6874C10.4167 16.2499 8.55209 15.0833 6.25001 15.0833C3.94793 15.0833 2.08334 16.2499 2.08334 17.6874Z" fill="black"/>
</svg>
