<svg width="25" height="26" viewBox="0 0 25 26" fill="none" xmlns="http://www.w3.org/2000/svg">
<path fill-rule="evenodd" clip-rule="evenodd" d="M0.418518 7.84375C-0.256466 9.2525 -0.0189716 10.9012 0.456017 14.1975L0.803509 16.6188C1.41224 20.8538 1.71724 22.97 3.18595 24.235C4.65467 25.5 6.80837 25.5 11.117 25.5H13.882C18.1906 25.5 20.3443 25.5 21.813 24.235C23.2817 22.97 23.5867 20.8538 24.1955 16.6188L24.5442 14.1975C25.0192 10.9012 25.2567 9.2525 24.5805 7.84375C23.9042 6.435 22.4667 5.5775 19.5906 3.865L17.8594 2.83375C15.2494 1.2775 13.9419 0.5 12.4995 0.5C11.057 0.5 9.7508 1.2775 7.13961 2.83375L5.4084 3.865C2.53347 5.5775 1.09475 6.435 0.418518 7.84375ZM7.81209 20.5C7.81209 20.2514 7.91086 20.0129 8.08667 19.8371C8.26249 19.6613 8.50094 19.5625 8.74957 19.5625H16.2494C16.498 19.5625 16.7365 19.6613 16.9123 19.8371C17.0881 20.0129 17.1869 20.2514 17.1869 20.5C17.1869 20.7486 17.0881 20.9871 16.9123 21.1629C16.7365 21.3387 16.498 21.4375 16.2494 21.4375H8.74957C8.50094 21.4375 8.26249 21.3387 8.08667 21.1629C7.91086 20.9871 7.81209 20.7486 7.81209 20.5Z" fill="white"/>
</svg>
