<svg width="25" height="26" viewBox="0 0 25 26" fill="none" xmlns="http://www.w3.org/2000/svg">
<path fill-rule="evenodd" clip-rule="evenodd" d="M14.874 2.74159C14.4885 2.58325 13.999 2.58325 13.0208 2.58325C12.0427 2.58325 11.5542 2.58325 11.1677 2.74159C10.9134 2.84549 10.6822 2.99865 10.4873 3.19226C10.2925 3.38587 10.1378 3.6161 10.0323 3.86971C9.93437 4.102 9.89687 4.37388 9.88124 4.76867C9.87381 5.05461 9.79381 5.33396 9.64877 5.5805C9.50373 5.82703 9.2984 6.03265 9.05208 6.17804C8.80077 6.31773 8.51827 6.39174 8.23075 6.39319C7.94323 6.39465 7.66 6.32351 7.40728 6.18638C7.0552 6.00096 6.79999 5.89888 6.54791 5.86554C5.99643 5.79359 5.43881 5.94179 4.99583 6.27804C4.66458 6.53013 4.41978 6.95096 3.93124 7.79158C3.44166 8.63221 3.19791 9.052 3.1427 9.46346C3.06978 10.0114 3.21978 10.5655 3.55937 11.0041C3.71353 11.2041 3.93124 11.3718 4.2677 11.5822C4.76458 11.8916 5.08333 12.4187 5.08333 12.9999C5.08333 13.5812 4.76458 14.1083 4.26874 14.4166C3.93124 14.628 3.71353 14.7958 3.55833 14.9958C3.39121 15.2126 3.26848 15.4603 3.19717 15.7247C3.12585 15.989 3.10734 16.2649 3.1427 16.5364C3.19791 16.9468 3.44166 17.3676 3.93124 18.2083C4.42083 19.0489 4.66458 19.4687 4.99583 19.7218C5.43749 20.0583 5.99583 20.2062 6.54791 20.1343C6.79999 20.101 7.0552 19.9989 7.40728 19.8135C7.66012 19.6761 7.94355 19.6049 8.23127 19.6064C8.51899 19.6078 8.80168 19.6819 9.05312 19.8218C9.55937 20.1135 9.85937 20.6499 9.88124 21.2312C9.89687 21.627 9.93437 21.8978 10.0323 22.1301C10.2448 22.6405 10.6531 23.0468 11.1677 23.2583C11.5531 23.4166 12.0427 23.4166 13.0208 23.4166C13.999 23.4166 14.4885 23.4166 14.874 23.2583C15.1282 23.1543 15.3595 23.0012 15.5543 22.8076C15.7492 22.614 15.9038 22.3837 16.0094 22.1301C16.1073 21.8978 16.1448 21.627 16.1604 21.2312C16.1812 20.6499 16.4823 20.1124 16.9896 19.8218C17.2409 19.6821 17.5234 19.6081 17.8109 19.6066C18.0984 19.6052 18.3817 19.6763 18.6344 19.8135C18.9865 19.9989 19.2417 20.101 19.4937 20.1343C20.0458 20.2072 20.6042 20.0583 21.0458 19.7218C21.3771 19.4697 21.6219 19.0489 22.1104 18.2083C22.6 17.3676 22.8437 16.9478 22.8989 16.5364C22.9342 16.2648 22.9155 15.9889 22.844 15.7246C22.7725 15.4602 22.6496 15.2126 22.4823 14.9958C22.3281 14.7958 22.1104 14.628 21.774 14.4176C21.2771 14.1083 20.9583 13.5812 20.9583 12.9999C20.9583 12.4187 21.2771 11.8916 21.7729 11.5833C22.1104 11.3718 22.3281 11.2041 22.4833 11.0041C22.6504 10.7872 22.7732 10.5395 22.8445 10.2751C22.9158 10.0108 22.9343 9.73497 22.8989 9.46346C22.8437 9.05304 22.6 8.63221 22.1104 7.79158C21.6208 6.95096 21.3771 6.53117 21.0458 6.27804C20.6028 5.94179 20.0452 5.79359 19.4937 5.86554C19.2417 5.89888 18.9865 6.00096 18.6344 6.18638C18.3815 6.3237 18.0981 6.39494 17.8104 6.39348C17.5227 6.39202 17.24 6.31792 16.9885 6.17804C16.7424 6.03252 16.5373 5.82685 16.3924 5.58032C16.2476 5.3338 16.1677 5.05451 16.1604 4.76867C16.1448 4.37284 16.1073 4.102 16.0094 3.86971C15.9038 3.6161 15.7492 3.38587 15.5543 3.19226C15.3595 2.99865 15.1282 2.84549 14.874 2.74159ZM13.0208 16.1249C14.7604 16.1249 16.1698 14.726 16.1698 12.9999C16.1698 11.2739 14.7594 9.87492 13.0208 9.87492C11.2823 9.87492 9.87187 11.2739 9.87187 12.9999C9.87187 14.726 11.2823 16.1249 13.0208 16.1249Z" fill="black"/>
</svg>
