<svg width="25" height="26" viewBox="0 0 25 26" fill="none" xmlns="http://www.w3.org/2000/svg">
<path fill-rule="evenodd" clip-rule="evenodd" d="M1.83 2.33C0 4.1625 0 7.1075 0 13C0 18.8925 0 21.8387 1.83 23.6688C3.6625 25.5 6.6075 25.5 12.5 25.5C18.3925 25.5 21.3387 25.5 23.1688 23.6688C25 21.84 25 18.8925 25 13C25 7.1075 25 4.16125 23.1688 2.33C21.34 0.5 18.3925 0.5 12.5 0.5C6.6075 0.5 3.66125 0.5 1.83 2.33ZM18.75 13.3125C18.9986 13.3125 19.2371 13.4113 19.4129 13.5871C19.5887 13.7629 19.6875 14.0014 19.6875 14.25V20.5C19.6875 20.7486 19.5887 20.9871 19.4129 21.1629C19.2371 21.3387 18.9986 21.4375 18.75 21.4375C18.5014 21.4375 18.2629 21.3387 18.0871 21.1629C17.9113 20.9871 17.8125 20.7486 17.8125 20.5V14.25C17.8125 14.0014 17.9113 13.7629 18.0871 13.5871C18.2629 13.4113 18.5014 13.3125 18.75 13.3125ZM13.4375 5.5C13.4375 5.25136 13.3387 5.0129 13.1629 4.83709C12.9871 4.66127 12.7486 4.5625 12.5 4.5625C12.2514 4.5625 12.0129 4.66127 11.8371 4.83709C11.6613 5.0129 11.5625 5.25136 11.5625 5.5V20.5C11.5625 20.7486 11.6613 20.9871 11.8371 21.1629C12.0129 21.3387 12.2514 21.4375 12.5 21.4375C12.7486 21.4375 12.9871 21.3387 13.1629 21.1629C13.3387 20.9871 13.4375 20.7486 13.4375 20.5V5.5ZM6.25 8.3125C6.49864 8.3125 6.7371 8.41127 6.91291 8.58709C7.08873 8.7629 7.1875 9.00136 7.1875 9.25V20.5C7.1875 20.7486 7.08873 20.9871 6.91291 21.1629C6.7371 21.3387 6.49864 21.4375 6.25 21.4375C6.00136 21.4375 5.7629 21.3387 5.58709 21.1629C5.41127 20.9871 5.3125 20.7486 5.3125 20.5V9.25C5.3125 9.00136 5.41127 8.7629 5.58709 8.58709C5.7629 8.41127 6.00136 8.3125 6.25 8.3125Z" fill="black"/>
</svg>
