<svg width="13" height="14" viewBox="0 0 13 14" fill="none" xmlns="http://www.w3.org/2000/svg">
<path d="M6.95349 7.3076L12.093 5.25166V8.66997C11.7253 8.435 11.2899 8.3291 10.8554 8.36895C10.4209 8.40881 10.012 8.59215 9.69318 8.89009C9.37437 9.18802 9.16378 9.5836 9.09462 10.0145C9.02545 10.4453 9.10163 10.8869 9.31116 11.2697C9.52069 11.6525 9.85164 11.9546 10.2518 12.1285C10.6521 12.3023 11.0987 12.3381 11.5215 12.23C11.9442 12.122 12.319 11.8763 12.5867 11.5317C12.8544 11.1871 12.9998 10.7632 13 10.3268V4.5484C13 3.85724 13 3.27795 12.9516 2.81596C12.9448 2.75232 12.9368 2.68881 12.9274 2.62549C12.8803 2.30984 12.798 2.01596 12.6378 1.76985C12.5399 1.61881 12.4124 1.48921 12.2629 1.38889L12.2587 1.38587C11.8306 1.10167 11.3499 1.12162 10.8547 1.248C10.3758 1.37015 9.78205 1.61868 9.05405 1.92344L7.78791 2.45315C7.44628 2.59586 7.15726 2.7174 6.93051 2.84257C6.68865 2.9756 6.48126 3.13282 6.32526 3.36744C6.16926 3.60206 6.10396 3.85422 6.07433 4.12875C6.04651 4.38634 6.04651 4.70018 6.04651 5.07025V9.87874C5.67883 9.64378 5.24341 9.53787 4.80889 9.57773C4.37438 9.61758 3.96548 9.80093 3.64667 10.0989C3.32786 10.3968 3.11727 10.7924 3.04811 11.2232C2.97894 11.6541 3.05512 12.0957 3.26465 12.4785C3.47418 12.8612 3.80514 13.1634 4.20534 13.3372C4.60554 13.5111 5.05223 13.5468 5.47498 13.4388C5.89773 13.3307 6.2725 13.085 6.5402 12.7405C6.8079 12.3959 6.9533 11.972 6.95349 11.5356V7.3076ZM3.93023 0.953518C3.93023 0.833237 3.88246 0.717883 3.79741 0.632832C3.71236 0.547781 3.59702 0.5 3.47675 0.5C3.35647 0.5 3.24113 0.547781 3.15608 0.632832C3.07104 0.717883 3.02326 0.833237 3.02326 0.953518V4.43653C2.65558 4.20157 2.22015 4.09566 1.78564 4.13552C1.35112 4.17537 0.942226 4.35872 0.623417 4.65665C0.304608 4.95459 0.0940192 5.35016 0.0248503 5.78101C-0.0443185 6.21187 0.0318673 6.65348 0.241397 7.03625C0.450926 7.41902 0.781881 7.72115 1.18208 7.89503C1.58229 8.06891 2.02898 8.10464 2.45173 7.99658C2.87448 7.88853 3.24924 7.64284 3.51694 7.29824C3.78464 6.95365 3.93005 6.52975 3.93023 6.09338V2.77061C4.35289 3.07538 4.85535 3.22111 5.2907 3.22111C5.41097 3.22111 5.52632 3.17332 5.61136 3.08827C5.69641 3.00322 5.74419 2.88787 5.74419 2.76759C5.74419 2.64731 5.69641 2.53195 5.61136 2.4469C5.52632 2.36185 5.41097 2.31407 5.2907 2.31407C4.96198 2.30618 4.64531 2.1887 4.39098 1.98028C4.12856 1.76441 3.93023 1.43606 3.93023 0.953518Z" fill="white"/>
</svg>
