<svg width="42" height="29" viewBox="0 0 42 29" fill="none" xmlns="http://www.w3.org/2000/svg">
<path d="M0.5 0V28.5" stroke="white"/>
<path d="M30.2813 13.0292L39.1354 9.48754V15.3761C38.502 14.9713 37.7519 14.7889 37.0033 14.8575C36.2547 14.9262 35.5503 15.242 35.0011 15.7553C34.4519 16.2685 34.0891 16.9499 33.9699 17.6921C33.8507 18.4344 33.982 19.1951 34.343 19.8545C34.7039 20.5138 35.2741 21.0343 35.9635 21.3338C36.653 21.6334 37.4225 21.6949 38.1508 21.5088C38.8791 21.3226 39.5248 20.8994 39.9859 20.3058C40.4471 19.7122 40.6976 18.982 40.6979 18.2302V8.27608C40.6979 7.08546 40.6979 6.08754 40.6146 5.29171C40.6029 5.18207 40.589 5.07267 40.5729 4.96358C40.4917 4.41983 40.35 3.91358 40.074 3.48962C39.9053 3.22943 39.6856 3.00618 39.4281 2.83337L39.4208 2.82817C38.6833 2.33858 37.8552 2.37296 37.0021 2.59067C36.1771 2.80108 35.1542 3.22921 33.9 3.75421L31.7188 4.66671C31.1302 4.91254 30.6323 5.12192 30.2417 5.33754C29.825 5.56671 29.4677 5.83754 29.199 6.24171C28.9302 6.64587 28.8177 7.08025 28.7667 7.55317C28.7188 7.99692 28.7188 8.53754 28.7188 9.17504V17.4584C28.0853 17.0536 27.3352 16.8712 26.5866 16.9398C25.8381 17.0085 25.1337 17.3243 24.5844 17.8376C24.0352 18.3508 23.6724 19.0322 23.5532 19.7744C23.4341 20.5166 23.5653 21.2774 23.9263 21.9368C24.2873 22.5961 24.8574 23.1166 25.5469 23.4161C26.2363 23.7157 27.0059 23.7772 27.7342 23.5911C28.4625 23.4049 29.1081 22.9817 29.5693 22.3881C30.0304 21.7945 30.2809 21.0642 30.2813 20.3125V13.0292ZM25.0729 2.08337C25.0729 1.87617 24.9906 1.67746 24.8441 1.53095C24.6976 1.38443 24.4989 1.30212 24.2917 1.30212C24.0845 1.30212 23.8858 1.38443 23.7393 1.53095C23.5927 1.67746 23.5104 1.87617 23.5104 2.08337V8.08337C22.877 7.67861 22.1269 7.49617 21.3783 7.56483C20.6297 7.63349 19.9253 7.94933 19.3761 8.46256C18.8269 8.9758 18.4641 9.65724 18.3449 10.3994C18.2257 11.1416 18.357 11.9024 18.718 12.5618C19.0789 13.2211 19.6491 13.7416 20.3385 14.0411C21.028 14.3407 21.7975 14.4022 22.5258 14.2161C23.2541 14.0299 23.8998 13.6067 24.3609 13.0131C24.8221 12.4195 25.0726 11.6892 25.0729 10.9375V5.21358C25.8011 5.73858 26.6667 5.98962 27.4167 5.98962C27.6239 5.98962 27.8226 5.90731 27.9691 5.7608C28.1156 5.61429 28.1979 5.41557 28.1979 5.20837C28.1979 5.00117 28.1156 4.80246 27.9691 4.65595C27.8226 4.50943 27.6239 4.42712 27.4167 4.42712C26.8504 4.41354 26.3048 4.21116 25.8667 3.85212C25.4146 3.48025 25.0729 2.91462 25.0729 2.08337Z" fill="white"/>
</svg>
